HIERARCHY
ROOT SpineBase
{
  OFFSET 0.000000 0.000000 0.000000
  CHANNELS 6 Xposition Yposition Zposition Zrotation Xrotation Yrotation
  JOINT SpineMid
  {
    OFFSET -0.000000 30.152121 0.000000
    CHANNELS 3 Zrotation Xrotation Yrotation
    JOINT SpineShoulder
    {
      OFFSET -0.140166 22.342577 -0.615463
      CHANNELS 3 Zrotation Xrotation Yrotation
      JOINT Neck
      {
        OFFSET -0.103813 7.366958 -0.481141
        CHANNELS 3 Zrotation Xrotation Yrotation
        JOINT Head
        {
          OFFSET 2.498859 14.100744 -1.055628
          CHANNELS 3 Zrotation Xrotation Yrotation
          End Site
          {
            OFFSET 0 0 0
          }
        }
      }
      JOINT ShoulderLeft
      {
        OFFSET -16.872366 -3.072722 -2.121219
        CHANNELS 3 Zrotation Xrotation Yrotation
        JOINT ElbowLeft
        {
          OFFSET -4.060736 -24.910262 -0.215204
          CHANNELS 3 Zrotation Xrotation Yrotation
          JOINT WristLeft
          {
            OFFSET 0.649301 -21.801978 -6.192141
            CHANNELS 3 Zrotation Xrotation Yrotation
            JOINT HandLeft
            {
              OFFSET 1.876434 -6.897621 -1.214607
              CHANNELS 3 Zrotation Xrotation Yrotation
              JOINT HandTipLeft
              {
                OFFSET 0.212093 -6.836739 -1.790942
                CHANNELS 3 Zrotation Xrotation Yrotation
                End Site
                {
                  OFFSET 0 0 0
                }
              }
              JOINT ThumbLeft
              {
                OFFSET 3.648001 0.697556 -0.528404
                CHANNELS 3 Zrotation Xrotation Yrotation
                End Site
                {
                  OFFSET 0 0 0
                }
              }
            }
          }
        }
      }
      JOINT ShoulderRight
      {
        OFFSET 16.312611 -4.174290 1.798338
        CHANNELS 3 Zrotation Xrotation Yrotation
        JOINT ElbowRight
        {
          OFFSET 2.383206 -25.916133 2.945901
          CHANNELS 3 Zrotation Xrotation Yrotation
          JOINT WristRight
          {
            OFFSET 1.574006 -23.465859 -4.987071
            CHANNELS 3 Zrotation Xrotation Yrotation
            JOINT HandRight
            {
              OFFSET 0.787860 -6.650510 -2.561515
              CHANNELS 3 Zrotation Xrotation Yrotation
              JOINT HandTipRight
              {
                OFFSET -0.167589 -5.861926 -0.736870
                CHANNELS 3 Zrotation Xrotation Yrotation
                End Site
                {
                  OFFSET 0 0 0
                }
              }
              JOINT ThumbRight
              {
                OFFSET -1.247971 -2.662475 -0.153641
                CHANNELS 3 Zrotation Xrotation Yrotation
                End Site
                {
                  OFFSET 0 0 0
                }
              }
            }
          }
        }
      }
    }
  }
  JOINT HipLeft
  {
    OFFSET -7.872259 0.450450 -3.964627
    CHANNELS 3 Zrotation Xrotation Yrotation
    JOINT KneeLeft
    {
      OFFSET -5.201284 -34.319701 1.615046
      CHANNELS 3 Zrotation Xrotation Yrotation
      JOINT AnkleLeft
      {
        OFFSET 0.044019 -34.566703 8.487725
        CHANNELS 3 Zrotation Xrotation Yrotation
        JOINT FootLeft
        {
          OFFSET 0.039445 -5.770403 -10.503095
          CHANNELS 3 Zrotation Xrotation Yrotation
          End Site
          {
            OFFSET 0 0 0
          }
        }
      }
    }
  }
  JOINT HipRight
  {
    OFFSET 6.737089 -0.008696 -2.687045
    CHANNELS 3 Zrotation Xrotation Yrotation
    JOINT KneeRight
    {
      OFFSET 3.690589 -34.840482 3.238734
      CHANNELS 3 Zrotation Xrotation Yrotation
      JOINT AnkleRight
      {
        OFFSET 5.914052 -36.551268 13.651566
        CHANNELS 3 Zrotation Xrotation Yrotation
        JOINT FootRight
        {
          OFFSET 0.503806 -4.674306 -12.822789
          CHANNELS 3 Zrotation Xrotation Yrotation
          End Site
          {
            OFFSET 0 0 0
          }
        }
      }
    }
  }
}
MOTION
Frames: 10
Frame Time: 0.033333
69.568105 79.597374 408.985989 0.000000 0.000000 -4.997777 -0.000000 0.000000 4.997777 -0.000000 0.000000 0.000000 -0.000000 0.000000 0.000000 0.000000 0.000000 0.000000 -0.000000 0.000000 0.000000 -0.000000 0.000000 0.000000 -0.000000 0.000000 0.000000 -0.000000 0.000000 0.000000 0.000000 0.000000 0.000000 0.000000 0.000000 0.000000 -0.000000 0.000000 0.000000 -0.000000 0.000000 0.000000 -0.000000 0.000000 0.000000 -0.000000 0.000000 0.000000 0.000000 0.000000 0.000000 0.000000 0.000000 0.000000 -0.000000 0.000000 4.997777 -0.000000 0.000000 0.000000 -0.000000 0.000000 0.000000 0.000000 0.000000 0.000000 -0.000000 0.000000 4.997777 -0.000000 0.000000 0.000000 -0.000000 0.000000 0.000000 0.000000 0.000000 0.000000
68.403756 79.438416 409.193946 -0.407851 -0.346547 -4.481246 0.379536 0.377346 4.478763 -0.000000 0.000000 0.000000 -0.000000 0.000000 0.000000 0.000000 0.000000 0.000000 -0.607320 0.802882 -0.121269 -0.758033 -0.639745 0.505646 -5.635072 -0.289176 0.790357 6.706750 -1.064190 -1.175815 0.000000 0.000000 0.000000 0.000000 0.000000 0.000000 -0.000000 0.000000 0.000000 2.116072 -0.747445 -0.486169 -1.664908 -1.374037 0.094631 1.862660 1.662410 0.075624 0.000000 0.000000 0.000000 0.000000 0.000000 0.000000 0.379536 0.377346 4.478763 -0.000000 0.000000 0.000000 -0.363118 -1.049732 0.661472 0.000000 0.000000 0.000000 1.416054 1.573434 4.683568 -1.130898 -1.107192 -0.233378 -0.000000 0.000000 0.000000 0.000000 0.000000 0.000000
67.397335 79.301349 409.385605 -0.733411 -0.656572 -3.989595 0.054262 0.032354 3.962650 0.029918 -0.018733 -0.029045 1.944644 1.285848 0.009978 0.000000 0.000000 0.000000 -0.691277 2.149368 -0.152728 -1.279303 -1.186732 0.942814 -10.627139 -0.292767 1.564447 12.416224 -2.276033 -2.217881 0.000000 0.000000 0.000000 0.000000 0.000000 0.000000 1.771066 -0.158687 0.096373 2.812962 -0.649902 -0.986077 -3.232387 -2.424752 0.272045 3.624014 3.108137 -0.043419 0.000000 0.000000 0.000000 0.000000 0.000000 0.000000 1.671147 1.032410 3.974532 -0.101672 -0.133645 0.214618 -1.559100 -1.637639 0.966652 0.000000 0.000000 0.000000 2.568276 2.980317 4.336277 -2.050046 -2.123856 -0.453672 -0.318462 -0.024768 0.871646 0.000000 0.000000 0.000000
66.548842 79.186174 409.560967 -0.977465 -0.930594 -3.525344 0.074687 0.035828 3.486577 0.038524 -0.031834 -0.039497 2.739377 1.819997 0.000783 0.000000 0.000000 0.000000 -1.329630 3.036259 -0.185414 -1.615908 -1.639004 1.336046 -14.669653 0.009272 2.320812 16.882563 -3.553196 -3.042423 0.000000 0.000000 0.000000 0.000000 0.000000 0.000000 2.428733 -0.163983 0.128830 3.911594 -1.025639 -1.374085 -4.743371 -3.060483 0.542281 5.282027 4.244912 -0.316923 0.000000 0.000000 0.000000 0.000000 0.000000 0.000000 2.303516 1.409844 3.495874 -0.136290 -0.094372 0.297955 -2.140973 -1.620603 1.262202 0.000000 0.000000 0.000000 3.461311 4.234235 3.974581 -3.566880 -2.550689 -0.915612 0.331871 -0.531065 1.527164 0.000000 0.000000 0.000000
65.858276 79.092891 409.720031 -1.140631 -1.169085 -3.090701 0.090498 0.031091 3.042314 0.042998 -0.047446 -0.047202 3.416861 2.282002 -0.013536 0.000000 0.000000 0.000000 -2.163917 3.804728 -0.187998 -1.808164 -1.995674 1.703695 -17.601647 0.623273 3.061062 20.002830 -4.805872 -3.619876 0.000000 0.000000 0.000000 0.000000 0.000000 0.000000 2.934526 -0.119497 0.152140 4.823579 -1.434195 -1.692367 -6.226193 -3.217549 0.911909 6.829008 5.007760 -0.696658 0.000000 0.000000 0.000000 0.000000 0.000000 0.000000 2.793287 1.699840 3.048065 -0.158114 0.016267 0.363896 -2.587281 -1.046774 1.426093 0.000000 0.000000 0.000000 4.097989 5.348445 3.613776 -4.741178 -3.162416 -1.354164 0.838329 -0.767283 2.173439 0.000000 0.000000 0.000000
65.325637 79.021499 409.862797 -1.223345 -1.372446 -2.687552 0.101591 0.018304 2.632410 0.043391 -0.065580 -0.052127 3.977695 2.672237 -0.030181 0.000000 0.000000 0.000000 -3.195773 4.458299 -0.160561 -1.890215 -2.255949 2.060544 -19.365735 1.546686 3.781009 21.774645 -5.963452 -3.965374 0.000000 0.000000 0.000000 0.000000 0.000000 0.000000 3.288537 -0.024953 0.167294 5.559333 -1.875941 -1.941777 -7.694228 -2.864905 1.384396 8.249463 5.364401 -1.133266 0.000000 0.000000 0.000000 0.000000 0.000000 0.000000 3.135847 1.906290 2.636336 -0.165701 0.198075 0.411802 -2.895222 0.052101 1.458285 0.000000 0.000000 0.000000 4.479537 6.335297 3.266235 -5.923539 -3.657403 -1.863248 1.550286 -1.032484 2.892709 0.000000 0.000000 0.000000
65.033682 78.968078 410.051588 -1.130295 -1.614924 -2.374926 0.108817 -0.005184 2.319055 0.036476 -0.097926 -0.051579 4.241569 3.004402 -0.043603 0.000000 0.000000 0.000000 -4.824874 5.234230 -0.095396 -2.055539 -2.478819 2.554365 -17.999251 3.389600 4.333913 21.030885 -5.378785 -3.868405 0.000000 0.000000 0.000000 0.000000 0.000000 0.000000 3.324952 0.189503 0.158987 6.385732 -2.503660 -2.154600 -9.724558 -1.191312 2.266406 9.746651 6.280848 -1.850570 0.000000 0.000000 0.000000 0.000000 0.000000 0.000000 3.175328 2.027697 2.333000 -0.121874 0.671961 0.424383 -2.609026 4.181593 0.623294 0.000000 0.000000 0.000000 4.502118 7.619309 3.023843 -7.559350 -4.477803 -2.728048 2.859912 -1.208909 3.929716 0.000000 0.000000 0.000000
64.927019 78.959286 410.186547 -0.975163 -1.761126 -2.096867 0.110120 -0.039548 2.044703 0.027559 -0.128620 -0.048151 4.603682 3.202249 -0.043699 0.000000 0.000000 0.000000 -6.480704 5.710956 0.003177 -2.160455 -2.385559 3.017929 -16.289591 5.798701 5.144655 19.685189 -6.362942 -3.927399 0.000000 0.000000 0.000000 0.000000 0.000000 0.000000 3.236313 0.432586 0.152189 6.863353 -3.110944 -2.263110 -11.378244 0.094186 3.053046 11.232784 6.142140 -2.424905 0.000000 0.000000 0.000000 0.000000 0.000000 0.000000 3.078441 2.045614 2.071244 -0.098767 1.145176 0.415169 -1.919060 8.980124 -0.595322 0.000000 0.000000 0.000000 4.159792 8.522043 2.800753 -9.045882 -4.736784 -3.566463 4.400251 -1.614966 4.922182 0.000000 0.000000 0.000000
64.853758 78.948526 410.253267 -0.885384 -1.816024 -1.839984 0.114083 -0.064805 1.790604 0.023611 -0.149478 -0.045799 5.026229 3.202858 -0.017804 0.000000 0.000000 0.000000 -8.016142 5.837839 0.120581 -2.034705 -1.918548 3.418059 -14.985013 6.924529 5.422006 17.723879 -6.538970 -3.839397 0.000000 0.000000 0.000000 0.000000 0.000000 0.000000 3.339952 0.540032 0.162442 6.862730 -3.492721 -2.316522 -12.621342 1.221997 3.723940 11.740512 5.119836 -2.671114 0.000000 0.000000 0.000000 0.000000 0.000000 0.000000 3.015386 1.996811 1.829713 -0.059620 1.461854 0.408782 -2.231702 9.331331 -0.184779 0.000000 0.000000 0.000000 3.802795 9.031172 2.581279 -10.147612 -4.709429 -4.210771 5.661382 -1.989283 5.835301 0.000000 0.000000 0.000000
64.783362 78.959653 410.250867 -0.748402 -1.799114 -1.339066 0.100010 -0.109107 1.295252 0.008133 -0.158779 -0.042185 4.998874 3.282590 -0.032698 0.000000 0.000000 0.000000 -9.451728 5.788456 0.229867 -1.697719 -1.726267 3.695160 -14.587992 7.178524 5.441621 14.799772 -6.147556 -3.506763 0.000000 0.000000 0.000000 0.000000 0.000000 0.000000 3.154225 0.776604 0.163077 6.749124 -3.704223 -2.261043 -13.074692 1.590078 4.012798 12.889618 4.211740 -2.951842 0.000000 0.000000 0.000000 0.000000 0.000000 0.000000 2.968461 1.923629 1.340425 -0.042372 1.606749 0.419228 -2.979846 7.044596 0.839710 0.000000 0.000000 0.000000 3.422149 9.071574 2.090485 -10.673727 -4.502220 -4.537680 6.385688 -2.203716 6.544200 0.000000 0.000000 0.000000
